<svg xmlns="http://www.w3.org/2000/svg" width="1024" height="1024" viewBox="0 0 1024 1024"><defs><linearGradient id="bg" x1="0.08" y1="0.04" x2="0.92" y2="1"><stop offset="0%" stop-color="#815678"/><stop offset="45%" stop-color="#432C40"/><stop offset="100%" stop-color="#180F19"/></linearGradient><radialGradient id="lightWash" cx="24%" cy="16%" r="68%"><stop offset="0%" stop-color="#FFFFFF" stop-opacity="0.07"/><stop offset="45%" stop-color="#FFFFFF" stop-opacity="0.02"/><stop offset="100%" stop-color="#FFFFFF" stop-opacity="0"/></radialGradient><radialGradient id="vignette" cx="78%" cy="90%" r="65%"><stop offset="0%" stop-color="#000000" stop-opacity="0.3"/><stop offset="100%" stop-color="#000000" stop-opacity="0"/></radialGradient><linearGradient id="gradTop" x1="0.1" y1="0" x2="0.9" y2="1"><stop offset="0%" stop-color="#F8FAFC"/><stop offset="100%" stop-color="#DFE1E3"/></linearGradient><linearGradient id="gradMid" x1="0.1" y1="0" x2="0.9" y2="1"><stop offset="0%" stop-color="#FFBADC"/><stop offset="100%" stop-color="#E096BB"/></linearGradient><linearGradient id="gradBottom" x1="0.1" y1="0" x2="0.9" y2="1"><stop offset="0%" stop-color="#FF8BC3"/><stop offset="100%" stop-color="#E0619E"/></linearGradient><filter id="shadowTop" x="-60%" y="-60%" width="220%" height="220%"><feDropShadow dx="6" dy="14" stdDeviation="12" flood-color="#000814" flood-opacity="0.40"/></filter><filter id="shadowMid" x="-60%" y="-60%" width="220%" height="220%"><feDropShadow dx="6" dy="13" stdDeviation="11" flood-color="#000814" flood-opacity="0.38"/></filter><filter id="shadowBottom" x="-60%" y="-60%" width="220%" height="220%"><feDropShadow dx="7" dy="16" stdDeviation="14" flood-color="#000814" flood-opacity="0.42"/></filter><clipPath id="roundedSquare"><rect x="20" y="20" width="984" height="984" rx="239"/></clipPath></defs><g clip-path="url(#roundedSquare)"><rect x="20" y="20" width="984" height="984" fill="url(#bg)"/><rect x="20" y="20" width="984" height="984" fill="url(#lightWash)"/><rect x="20" y="20" width="984" height="984" fill="url(#vignette)"/></g><rect x="20" y="20" width="984" height="984" rx="239" fill="none" stroke="rgba(255,255,255,0.07)" stroke-width="2"/><g stroke-linecap="round" stroke-linejoin="round" fill="none"><polyline filter="url(#shadowTop)" points="282,418 512,274 742,418" stroke="url(#gradTop)" stroke-width="61"/><polyline filter="url(#shadowMid)" points="345,479 512,621 679,479" stroke="url(#gradMid)" stroke-width="50"/><polyline filter="url(#shadowBottom)" points="283,563 512,748 741,563" stroke="url(#gradBottom)" stroke-width="68"/></g></svg>