<svg width="1024" height="1024" viewBox="0 0 1024 1024" xmlns="http://www.w3.org/2000/svg">
  <defs>
    <linearGradient id="bgGrad" x1="20%" y1="0%" x2="80%" y2="100%">
      <stop offset="0%" stop-color="#2B2B30"/>
      <stop offset="55%" stop-color="#1C1C20"/>
      <stop offset="100%" stop-color="#121215"/>
    </linearGradient>
    <linearGradient id="bevelHighlight" x1="0%" y1="0%" x2="0%" y2="100%">
      <stop offset="0%" stop-color="#FFFFFF" stop-opacity="0.55"/>
      <stop offset="6%" stop-color="#FFFFFF" stop-opacity="0.12"/>
      <stop offset="100%" stop-color="#FFFFFF" stop-opacity="0"/>
    </linearGradient>
    <linearGradient id="frameLit" x1="50%" y1="0%" x2="50%" y2="100%">
      <stop offset="0%" stop-color="#F0F0F2" stop-opacity="1"/>
      <stop offset="22%" stop-color="#F0F0F2" stop-opacity="0.7"/>
      <stop offset="55%" stop-color="#3A3A40" stop-opacity="0.35"/>
      <stop offset="100%" stop-color="#3A3A40" stop-opacity="0.18"/>
    </linearGradient>
    <linearGradient id="frameDeep" x1="50%" y1="0%" x2="50%" y2="100%">
      <stop offset="0%" stop-color="#000000" stop-opacity="0.05"/>
      <stop offset="55%" stop-color="#000000" stop-opacity="0.4"/>
      <stop offset="100%" stop-color="#000000" stop-opacity="0.65"/>
    </linearGradient>
    <linearGradient id="bevelShadowBottom" x1="0%" y1="0%" x2="0%" y2="100%">
      <stop offset="0%" stop-color="#000000" stop-opacity="0"/>
      <stop offset="92%" stop-color="#000000" stop-opacity="0.10"/>
      <stop offset="100%" stop-color="#000000" stop-opacity="0.45"/>
    </linearGradient>
    <radialGradient id="bgVignette" cx="32%" cy="18%" r="85%">
      <stop offset="0%" stop-color="#FFFFFF" stop-opacity="0.08"/>
      <stop offset="55%" stop-color="#FFFFFF" stop-opacity="0"/>
    </radialGradient>

    <linearGradient id="diaBack" x1="20%" y1="0%" x2="75%" y2="100%">
      <stop offset="0%" stop-color="#5C5C62"/>
      <stop offset="100%" stop-color="#222226"/>
    </linearGradient>
    <linearGradient id="diaMid" x1="18%" y1="0%" x2="78%" y2="100%">
      <stop offset="0%" stop-color="#D6D6DA"/>
      <stop offset="100%" stop-color="#7A7A80"/>
    </linearGradient>
    <linearGradient id="diaFront" x1="15%" y1="0%" x2="80%" y2="100%">
      <stop offset="0%" stop-color="#FFFFFF"/>
      <stop offset="45%" stop-color="#F2F2F4"/>
      <stop offset="100%" stop-color="#C7C7CC"/>
    </linearGradient>

    <filter id="dropShOuter" x="-60%" y="-60%" width="220%" height="220%">
      <feDropShadow dx="0" dy="22" stdDeviation="26" flood-color="#000000" flood-opacity="0.5"/>
    </filter>
    <filter id="layerSh" x="-80%" y="-80%" width="260%" height="260%">
      <feDropShadow dx="0" dy="20" stdDeviation="22" flood-color="#000000" flood-opacity="0.6"/>
    </filter>
    <filter id="layerShSoft" x="-80%" y="-80%" width="260%" height="260%">
      <feDropShadow dx="0" dy="16" stdDeviation="18" flood-color="#000000" flood-opacity="0.55"/>
    </filter>
  </defs>
  <path d="M 327.68,0 L 696.3199999999999,0 Q 1024,0 1024,327.68 L 1024,696.3199999999999 Q 1024,1024 696.3199999999999,1024 L 327.68,1024 Q 0,1024 0,696.3199999999999 L 0,327.68 Q 0,0 327.68,0 Z" fill="url(#bgGrad)"/>
  <path d="M 327.68,0 L 696.3199999999999,0 Q 1024,0 1024,327.68 L 1024,696.3199999999999 Q 1024,1024 696.3199999999999,1024 L 327.68,1024 Q 0,1024 0,696.3199999999999 L 0,327.68 Q 0,0 327.68,0 Z" fill="url(#bgVignette)"/>
  <path d="M 328.4992,53.248 L 695.5008,53.248 Q 970.752,53.248 970.752,328.4992 L 970.752,695.5008 Q 970.752,970.752 695.5008,970.752 L 328.4992,970.752 Q 53.248,970.752 53.248,695.5008 L 53.248,328.4992 Q 53.248,53.248 328.4992,53.248 Z" fill="none" stroke="url(#frameDeep)" stroke-width="7"/>
  <path d="M 330.4992,58.248 L 693.5008,58.248 Q 965.752,58.248 965.752,330.4992 L 965.752,693.5008 Q 965.752,965.752 693.5008,965.752 L 330.4992,965.752 Q 58.248,965.752 58.248,693.5008 L 58.248,330.4992 Q 58.248,58.248 330.4992,58.248 Z" fill="none" stroke="url(#frameLit)" stroke-width="9"/>
  <path d="M 329.12,4 L 694.88,4 Q 1020,4 1020,329.12 L 1020,694.88 Q 1020,1020 694.88,1020 L 329.12,1020 Q 4,1020 4,694.88 L 4,329.12 Q 4,4 329.12,4 Z" fill="none" stroke="url(#bevelHighlight)" stroke-width="6"/>
  <path d="M 327.68,0 L 696.3199999999999,0 Q 1024,0 1024,327.68 L 1024,696.3199999999999 Q 1024,1024 696.3199999999999,1024 L 327.68,1024 Q 0,1024 0,696.3199999999999 L 0,327.68 Q 0,0 327.68,0 Z" fill="url(#bevelShadowBottom)"/>
  <g filter="url(#dropShOuter)">
    <path d="M 492.6,494.4 Q 512.0,484.0 531.4,494.4 L 812.6,645.6 Q 832.0,656.0 812.6,666.4 L 531.4,817.6 Q 512.0,828.0 492.6,817.6 L 211.4,666.4 Q 192.0,656.0 211.4,645.6 Z" fill="#000000" fill-opacity="0.5" filter="url(#layerShSoft)"/>
    <g filter="url(#layerSh)">
      <path d="M 492.6,488.4 Q 512.0,478.0 531.4,488.4 L 812.6,639.6 Q 832.0,650.0 812.6,660.4 L 531.4,811.6 Q 512.0,822.0 492.6,811.6 L 211.4,660.4 Q 192.0,650.0 211.4,639.6 Z" fill="url(#diaBack)"/>
    </g>
    <path d="M 492.6,366.4 Q 512.0,356.0 531.4,366.4 L 812.6,517.6 Q 832.0,528.0 812.6,538.4 L 531.4,689.6 Q 512.0,700.0 492.6,689.6 L 211.4,538.4 Q 192.0,528.0 211.4,517.6 Z" fill="#000000" fill-opacity="0.55" filter="url(#layerShSoft)"/>
    <g filter="url(#layerSh)">
      <path d="M 492.6,360.4 Q 512.0,350.0 531.4,360.4 L 812.6,511.6 Q 832.0,522.0 812.6,532.4 L 531.4,683.6 Q 512.0,694.0 492.6,683.6 L 211.4,532.4 Q 192.0,522.0 211.4,511.6 Z" fill="url(#diaMid)"/>
    </g>
    <path d="M 492.6,238.4 Q 512.0,228.0 531.4,238.4 L 812.6,389.6 Q 832.0,400.0 812.6,410.4 L 531.4,561.6 Q 512.0,572.0 492.6,561.6 L 211.4,410.4 Q 192.0,400.0 211.4,389.6 Z" fill="#000000" fill-opacity="0.55" filter="url(#layerShSoft)"/>
    <g filter="url(#layerShSoft)">
      <path d="M 492.6,232.4 Q 512.0,222.0 531.4,232.4 L 812.6,383.6 Q 832.0,394.0 812.6,404.4 L 531.4,555.6 Q 512.0,566.0 492.6,555.6 L 211.4,404.4 Q 192.0,394.0 211.4,383.6 Z" fill="url(#diaFront)"/>
    </g>
  </g>
  <line x1="512.0" y1="226.0" x2="202.0" y2="390.0" stroke="#FFFFFF" stroke-opacity="0.6" stroke-width="4" stroke-linecap="round"/>
</svg>